<?xml version="1.0" encoding="utf-8"?>
<!DOCTYPE svg PUBLIC "-//W3C//DTD SVG 1.0//EN" "http://www.w3.org/TR/2001/REC-SVG-20010904/DTD/svg10.dtd">
<svg version="1.0" xmlns="http://www.w3.org/2000/svg" width="275px" height="275px" viewBox="0 0 275 275" preserveAspectRatio="xMidYMid meet">
 <g fill="#ff0e0e">
  <path d="M138.6 265.9 c-13.5 -1.3 -13.9 -3.5 -1.6 -7.9 9 -3.2 17.6 -8.9 23.1 -15.2 5.8 -6.7 7.5 -10 8.7 -16.8 1.2 -6.3 1.3 -24.3 0.2 -28 -0.4 -1.4 -1.8 -6.1 -3 -10.5 -3.3 -11.9 -20.5 -40.8 -23.9 -40.2 -2.2 0.3 -2.7 3.8 -3.5 23.7 -1 25.4 -2.1 35.4 -5.2 45.1 -5.3 17 -14 26.5 -27.8 30.5 -8.3 2.3 -21.7 1.5 -31.4 -1.9 -12.7 -4.4 -27.7 -14.8 -35.4 -24.4 -6.4 -7.9 -16.4 -28.1 -18.4 -36.9 -1.6 -7.5 -1.6 -14 0.1 -13.8 0.6 0.1 2.7 4.3 4.7 9.3 9.4 23 24.1 34.1 45.8 34.5 9 0.1 9.9 -0.1 17 -3.5 4.1 -2 9.3 -5 11.6 -6.7 6.8 -5 19.4 -21.6 24.8 -32.7 2.6 -5.5 5.1 -10.7 5.6 -11.5 1.8 -3.7 3.2 -12.2 2.2 -13.2 -1.5 -1.5 -11.4 1.3 -21.1 5.9 -4 1.9 -10.3 4.4 -14 5.5 -3.6 1.1 -8.2 3 -10.2 4.2 -7.2 4.2 -11.9 12.1 -11.9 19.8 0 7 -0.8 7.5 -8.2 5.4 -9.6 -2.6 -24.3 -11.8 -36.1 -22.6 -6.6 -6.1 -12.1 -16.3 -15.8 -29.5 -2.9 -10.4 -3.1 -28.8 -0.4 -38 3.7 -12.6 15 -30.5 19.2 -30.5 1.3 0 1.4 1.1 0.7 6.8 -1.5 11.3 -0.8 23.3 1.7 31.4 2 6.5 3.1 8.1 9.3 14.3 9.5 9.4 21.1 14.8 39.6 18.4 12.7 2.5 45 2.5 45 0.1 0 -1.1 -11.7 -10.5 -17.9 -14.4 -30.5 -18.9 -45.6 -33 -50.8 -47.2 -5.9 -16.3 -0.1 -33.6 15.9 -47.4 8.8 -7.6 21.4 -14.3 31.6 -16.6 3.7 -0.9 8.1 -2 9.8 -2.5 13.7 -4 60 7.3 51.4 12.6 -0.5 0.3 -4.9 -0.1 -9.7 -1 -11.6 -2 -18.2 -1.9 -27.6 0.5 -13.3 3.4 -20.9 9.4 -27.8 22.3 l-3.1 5.9 0.4 14.1 c0.4 13.5 0.6 14.6 4.2 23.7 4.3 11.1 7.6 17.1 15.9 29.5 6.8 10.2 10.5 14.5 12.4 14.5 2.3 0 2.5 -1 7.5 -30 0.7 -4.1 1.3 -11.5 1.3 -16.5 -0.1 -7.9 -0.4 -9.6 -2.8 -14 -1.8 -3.2 -4.5 -6.2 -7.7 -8.4 -2.8 -1.9 -5 -4.2 -5 -5.1 0 -4.2 14.1 -14.1 28.4 -19.8 19.3 -7.8 30 -8.2 49.1 -1.7 15.2 5.2 31.3 16.7 38.7 27.5 3.9 5.7 10.8 21.3 10.8 24.3 0 2.6 -1.2 2.1 -6.9 -3 -12.3 -11.2 -27.6 -17 -41.2 -15.7 -21.8 2.1 -41.8 19.9 -59.5 53.1 -2.7 5 -4.5 9.5 -4.1 9.9 1 1 7.9 -1.4 16.7 -5.9 26.3 -13.6 41.2 -20.6 46 -21.7 3 -0.7 6.8 -1.6 8.4 -2.1 7.8 -2.4 22.1 0.2 30.6 5.6 5.1 3.2 11.8 11.1 14.6 17 6 13 8 31.3 4.9 46 -2.6 12.5 -12.6 29.7 -23.8 41.3 -5.4 5.5 -12.5 11.2 -14.2 11.2 -1.7 0 0.1 -4.4 3.3 -8.1 5.1 -5.8 11.8 -17 13.6 -22.8 2.3 -7.4 2.7 -15.9 1.2 -23.3 -2.7 -12.2 -8.1 -18.7 -22.6 -26.6 -8.1 -4.4 -11.8 -5.5 -25.5 -7.2 -7.3 -1 -11.9 -0.9 -25 0.4 -16.7 1.7 -23.1 2.8 -24.7 4.4 -1.1 1.1 5.7 7.3 15.7 14.3 3.9 2.7 9 6.5 11.5 8.4 2.5 2 7.2 5.1 10.5 7 5 2.8 7.2 3.5 13 3.7 6.2 0.2 7.4 -0.1 11 -2.5 2.2 -1.5 4.5 -2.7 5.2 -2.7 2 0 4.3 9 5.2 20.4 0.9 11.7 -0.3 19.6 -5 32.2 -2.6 7.1 -4.4 9.8 -12.6 19.1 -11.1 12.6 -24.4 20.8 -40.8 25.4 -7.5 2 -8.4 2.1 -21.9 0.8z"/>
 </g>
</svg>