<svg width="16" height="16" viewBox="0 0 16 16" fill="none" xmlns="http://www.w3.org/2000/svg">
<path d="M8 0C3.58172 0 0 3.58172 0 8C0 12.4183 3.58172 16 8 16C12.4183 16 16 12.4183 16 8C16 3.58172 12.4183 0 8 0ZM8.54883 3.4668C10.6893 3.4668 12.4238 5.20235 12.4238 7.34277C12.4238 9.48321 10.6893 11.2178 8.54883 11.2178C7.90108 11.2178 7.29059 11.0593 6.75391 10.7783C6.75445 10.7808 6.75532 10.7837 6.75585 10.7861L5.00781 12.5332L3.57617 11.1006L5.26172 9.41407C5.26451 9.41281 5.26772 9.41235 5.27051 9.41113C4.89201 8.81256 4.67285 8.10329 4.67285 7.34277C4.67285 5.20233 6.40839 3.4668 8.54883 3.4668ZM8.54883 5.18848C7.35932 5.18848 6.39453 6.15327 6.39453 7.34277C6.39453 8.53228 7.35932 9.49609 8.54883 9.49609C9.73835 9.49609 10.7021 8.53228 10.7021 7.34277C10.7021 6.15327 9.73835 5.18848 8.54883 5.18848Z" fill="#F4F3EA"/>
</svg>
